<svg height="495" viewBox="0 0 44 58" width="495" xmlns="http://www.w3.org/2000/svg">
<g id="Page-1" fill="none" fill-rule="evenodd">
<g id="004---Timer" fill-rule="nonzero">
<path id="Shape" d="m5 53c-.55228475 0-1-.4477153-1-1v-46c0-.55228475.44771525-1 1-1s1 .44771525 1 1v46c0 .5522847-.44771525 1-1 1z" fill="#fa6990"/>
<path id="Shape" d="m39 53c-.5522847 0-1-.4477153-1-1v-46c0-.55228475.4477153-1 1-1s1 .44771525 1 1v46c0 .5522847-.4477153 1-1 1z" fill="#fa6990"/>
<path id="Shape" d="m22 29c6.627417 0 12 5.372583 12 12v11h-24v-11c0-6.627417 5.372583-12 12-12z" fill="#63d5ef8a"/>
<path id="Shape" d="m34.0000002 52-.0000002-11c.0007129-4.3103096-2.3103427-8.2898865-6.0543923-10.4255039-3.7440496-2.1356175-8.3458624-2.0991621-12.0556077.0955039 4.3768229.9264259 8.0898124 3.8032561 10.08 7.81 1.97 4.15 1.83 8.9 1.41 13.52z" fill="#63d5ef"/>
<path id="Shape" d="m1 0h42c.5522847 0 1 .44771525 1 1v2c0 1.65685425-1.3431458 3-3 3h-38c-1.65685425 0-3-1.34314575-3-3v-2c0-.55228475.44771525-1 1-1z" fill="#97d3a0"/>
<path id="Shape" d="m3 52h38c1.6568542 0 3 1.3431458 3 3v2c0 .5522847-.4477153 1-1 1h-42c-.55228475 0-1-.4477153-1-1v-2c0-1.6568542 1.34314575-3 3-3z" fill="#97d3a0"/>
<path id="Shape" d="m10 6h24v11c0 6.627417-5.372583 12-12 12s-12-5.372583-12-12z" fill="#63d5ef8a"/>
<path id="Shape" d="m14 14c-.5522847 0-1-.4477153-1-1v-3c0-.55228475.4477153-1 1-1s1 .44771525 1 1v3c0 .5522847-.4477153 1-1 1z" fill="#fff"/>
<path id="Shape" d="m14 42c-.5522847 0-1-.4477153-1-1v-3c0-.5522847.4477153-1 1-1s1 .4477153 1 1v3c0 .5522847-.4477153 1-1 1z" fill="#fff"/>
<path id="bottomsand" d="m14 52 3.757-3.757c1.1252475-1.1254381 2.651525-1.7577187 4.243-1.7577187s3.1177525.6322806 4.243 1.7577187l3.757 3.757z" fill="#f6ea7c"/>
<path id="Shape" d="m34.0000002 6-.0000002 11c.0007129 4.3103096-2.3103427 8.2898865-6.0543923 10.4255039-3.7440496 2.1356175-8.3458624 2.0991621-12.0556077-.0955039 4.3768229-.9264259 8.0898124-3.8032561 10.08-7.81 1.97-4.15 1.83-8.9 1.41-13.52z" fill="#63d5ef"/>
<path id="Sand" d="m25.14 21c-2.1307588 3.2444905-5.4541181 5.5187461-9.25 6.33-2.3938403-1.4140704-4.2215258-3.6164845-5.17-6.23.4-.143-1.294-.1 14.42-.1z" fill="#fff27e"/>
<path id="topsand" d="m33.28 21.1c-1.2192695 3.356322-3.8699731 5.9952691-7.2316817 7.1996075-3.3617087 1.2043384-7.0851428.8489381-10.1583183-.9696075 3.7958819-.8112539 7.1192412-3.0855095 9.25-6.33 8.736 0 7.74-.043 8.14.1z" fill="#f6ea7c"/>
</g>
</g>
<linearGradient id="Gradient2" x1="0" x2="0" y1="0" y2="1">
        <stop offset="0%" stop-color="#63d5ef"/>
        <stop offset="50%" stop-color="#63d5ef" stop-opacity="1"/>
        <stop offset="100%" stop-color="#f6ea7c"/>
      </linearGradient>
<style>
@keyframes sandtop {
  0% {
    fill: transparent;
  }
  50% {
  fill: url(#Gradient2);
  }
}
#topsand {
      animation: sandtop 5s ease-in infinite;
      }
      


</style>
</svg>